<svg xmlns="http://www.w3.org/2000/svg" xmlns:xlink="http://www.w3.org/1999/xlink" width="500" zoomAndPan="magnify" viewBox="0 0 375 374.999991" height="500" preserveAspectRatio="xMidYMid meet" version="1.0"><defs><g/><clipPath id="ed40a49b37"><path d="M 116.675781 103.316406 L 256.925781 103.316406 L 256.925781 243.566406 L 116.675781 243.566406 Z M 116.675781 103.316406 " clip-rule="nonzero"/></clipPath></defs><g clip-path="url(#ed40a49b37)"><path fill="#40240a" d="M 116.675781 103.316406 L 256.925781 103.316406 L 256.925781 243.566406 L 116.675781 243.566406 Z M 116.675781 103.316406 " fill-opacity="1" fill-rule="nonzero"/></g><g fill="#ffffff" fill-opacity="1"><g transform="translate(148.843999, 162.903388)"><g><path d="M 3.140625 -23.90625 L 13.53125 -23.90625 C 16.007812 -23.90625 17.960938 -23.375 19.390625 -22.3125 C 20.828125 -21.257812 21.546875 -19.800781 21.546875 -17.9375 C 21.546875 -16.59375 21.171875 -15.445312 20.421875 -14.5 C 19.671875 -13.550781 18.644531 -12.921875 17.34375 -12.609375 C 18.945312 -12.328125 20.203125 -11.648438 21.109375 -10.578125 C 22.015625 -9.515625 22.46875 -8.175781 22.46875 -6.5625 C 22.46875 -4.507812 21.691406 -2.898438 20.140625 -1.734375 C 18.597656 -0.578125 16.472656 0 13.765625 0 L 3.140625 0 Z M 7.171875 -20.328125 L 7.171875 -14 L 13.328125 -14 C 14.597656 -14 15.597656 -14.285156 16.328125 -14.859375 C 17.054688 -15.429688 17.421875 -16.21875 17.421875 -17.21875 C 17.421875 -18.21875 17.0625 -18.984375 16.34375 -19.515625 C 15.625 -20.054688 14.617188 -20.328125 13.328125 -20.328125 Z M 7.171875 -10.453125 L 7.171875 -3.59375 L 13.328125 -3.59375 C 14.921875 -3.59375 16.15625 -3.890625 17.03125 -4.484375 C 17.90625 -5.085938 18.34375 -5.953125 18.34375 -7.078125 C 18.34375 -8.117188 17.894531 -8.941406 17 -9.546875 C 16.113281 -10.148438 14.890625 -10.453125 13.328125 -10.453125 Z M 7.171875 -10.453125 "/></g></g></g><g fill="#ffffff" fill-opacity="1"><g transform="translate(201.312531, 162.903388)"><g><path d="M 18.578125 -5.390625 L 6.53125 -5.390625 L 4.234375 0 L 0.03125 0 L 10.59375 -23.90625 L 14.71875 -23.90625 L 25.171875 0 L 20.875 0 Z M 17.046875 -8.984375 L 12.53125 -19.609375 L 8.03125 -8.984375 Z M 17.046875 -8.984375 "/></g></g></g><g fill="#ffffff" fill-opacity="1"><g transform="translate(148.633061, 211.679019)"><g><path d="M 19.09375 0 L 11.234375 -10.546875 L 7.171875 -6.078125 L 7.171875 0 L 3.140625 0 L 3.140625 -23.90625 L 7.171875 -23.90625 L 7.171875 -11.546875 L 18.578125 -23.90625 L 23.328125 -23.90625 L 14.078125 -13.703125 L 23.9375 0 Z M 19.09375 0 "/></g></g></g><g fill="#ffffff" fill-opacity="1"><g transform="translate(202.730499, 211.679019)"><g><path d="M 11 -24.078125 C 14.09375 -24.078125 16.878906 -23.257812 19.359375 -21.625 L 17.6875 -18.0625 C 15.25 -19.539062 12.914062 -20.28125 10.6875 -20.28125 C 9.476562 -20.28125 8.523438 -20.0625 7.828125 -19.625 C 7.140625 -19.195312 6.796875 -18.582031 6.796875 -17.78125 C 6.796875 -16.988281 7.113281 -16.3125 7.75 -15.75 C 8.382812 -15.195312 9.179688 -14.789062 10.140625 -14.53125 C 11.097656 -14.269531 12.132812 -13.9375 13.25 -13.53125 C 14.363281 -13.132812 15.398438 -12.710938 16.359375 -12.265625 C 17.316406 -11.828125 18.109375 -11.132812 18.734375 -10.1875 C 19.359375 -9.25 19.671875 -8.109375 19.671875 -6.765625 C 19.671875 -4.671875 18.832031 -2.992188 17.15625 -1.734375 C 15.488281 -0.484375 13.320312 0.140625 10.65625 0.140625 C 8.832031 0.140625 7.066406 -0.195312 5.359375 -0.875 C 3.648438 -1.5625 2.160156 -2.488281 0.890625 -3.65625 L 2.625 -7.140625 C 3.832031 -6.023438 5.160156 -5.164062 6.609375 -4.5625 C 8.054688 -3.957031 9.425781 -3.65625 10.71875 -3.65625 C 12.132812 -3.65625 13.234375 -3.910156 14.015625 -4.421875 C 14.804688 -4.929688 15.203125 -5.644531 15.203125 -6.5625 C 15.203125 -7.375 14.878906 -8.0625 14.234375 -8.625 C 13.597656 -9.1875 12.800781 -9.597656 11.84375 -9.859375 C 10.894531 -10.117188 9.863281 -10.4375 8.75 -10.8125 C 7.632812 -11.1875 6.597656 -11.582031 5.640625 -12 C 4.679688 -12.425781 3.878906 -13.101562 3.234375 -14.03125 C 2.597656 -14.96875 2.28125 -16.097656 2.28125 -17.421875 C 2.28125 -19.441406 3.078125 -21.054688 4.671875 -22.265625 C 6.273438 -23.472656 8.382812 -24.078125 11 -24.078125 Z M 11 -24.078125 "/></g></g></g><g fill="#222222" fill-opacity="1"><g transform="translate(122.561275, 267.784934)"><g><path d="M 6.203125 -6.46875 L 3.796875 -6.46875 L 3.796875 0 L 2.5 0 L 2.5 -6.46875 L 0.09375 -6.46875 L 0.09375 -7.625 L 6.203125 -7.625 Z M 6.203125 -6.46875 "/></g></g></g><g fill="#222222" fill-opacity="1"><g transform="translate(129.735916, 267.784934)"><g><path d="M 2.28125 0 L 1 0 L 1 -7.625 L 2.28125 -7.625 Z M 2.28125 0 "/></g></g></g><g fill="#222222" fill-opacity="1"><g transform="translate(133.894936, 267.784934)"><g><path d="M 6.453125 -6.46875 L 2.28125 -6.46875 L 2.28125 -4.40625 L 6.015625 -4.40625 L 6.015625 -3.25 L 2.28125 -3.25 L 2.28125 -1.15625 L 6.578125 -1.15625 L 6.578125 0 L 1 0 L 1 -7.625 L 6.453125 -7.625 Z M 6.453125 -6.46875 "/></g></g></g><g fill="#222222" fill-opacity="1"><g transform="translate(141.907857, 267.784934)"><g><path d="M 7.609375 0 L 6.34375 0 L 2.28125 -5.46875 L 2.28125 0 L 1 0 L 1 -7.625 L 2.265625 -7.625 L 6.34375 -2.140625 L 6.34375 -7.625 L 7.609375 -7.625 Z M 7.609375 0 "/></g></g></g><g fill="#222222" fill-opacity="1"><g transform="translate(151.401368, 267.784934)"><g><path d="M 1 -7.625 L 4.125 -7.625 C 5.269531 -7.625 6.210938 -7.265625 6.953125 -6.546875 C 7.691406 -5.828125 8.0625 -4.914062 8.0625 -3.8125 C 8.0625 -2.707031 7.6875 -1.796875 6.9375 -1.078125 C 6.195312 -0.359375 5.25 0 4.09375 0 L 1 0 Z M 2.28125 -6.46875 L 2.28125 -1.15625 L 4.15625 -1.15625 C 4.90625 -1.15625 5.53125 -1.398438 6.03125 -1.890625 C 6.53125 -2.390625 6.78125 -3.023438 6.78125 -3.796875 C 6.78125 -4.566406 6.519531 -5.203125 6 -5.703125 C 5.488281 -6.210938 4.859375 -6.46875 4.109375 -6.46875 Z M 2.28125 -6.46875 "/></g></g></g><g fill="#222222" fill-opacity="1"><g transform="translate(160.709806, 267.784934)"><g><path d="M 5.921875 -1.71875 L 2.078125 -1.71875 L 1.34375 0 L 0.015625 0 L 3.375 -7.625 L 4.6875 -7.625 L 8.03125 0 L 6.65625 0 Z M 5.4375 -2.859375 L 4 -6.25 L 2.5625 -2.859375 Z M 5.4375 -2.859375 "/></g></g></g><g fill="#222222" fill-opacity="1"><g transform="translate(169.615435, 267.784934)"><g/></g></g><g fill="#222222" fill-opacity="1"><g transform="translate(173.295442, 267.784934)"><g><path d="M 1 -7.625 L 4.125 -7.625 C 5.269531 -7.625 6.210938 -7.265625 6.953125 -6.546875 C 7.691406 -5.828125 8.0625 -4.914062 8.0625 -3.8125 C 8.0625 -2.707031 7.6875 -1.796875 6.9375 -1.078125 C 6.195312 -0.359375 5.25 0 4.09375 0 L 1 0 Z M 2.28125 -6.46875 L 2.28125 -1.15625 L 4.15625 -1.15625 C 4.90625 -1.15625 5.53125 -1.398438 6.03125 -1.890625 C 6.53125 -2.390625 6.78125 -3.023438 6.78125 -3.796875 C 6.78125 -4.566406 6.519531 -5.203125 6 -5.703125 C 5.488281 -6.210938 4.859375 -6.46875 4.109375 -6.46875 Z M 2.28125 -6.46875 "/></g></g></g><g fill="#222222" fill-opacity="1"><g transform="translate(182.603877, 267.784934)"><g><path d="M 6.453125 -6.46875 L 2.28125 -6.46875 L 2.28125 -4.40625 L 6.015625 -4.40625 L 6.015625 -3.25 L 2.28125 -3.25 L 2.28125 -1.15625 L 6.578125 -1.15625 L 6.578125 0 L 1 0 L 1 -7.625 L 6.453125 -7.625 Z M 6.453125 -6.46875 "/></g></g></g><g fill="#222222" fill-opacity="1"><g transform="translate(190.616801, 267.784934)"><g/></g></g><g fill="#222222" fill-opacity="1"><g transform="translate(194.296808, 267.784934)"><g><path d="M 9.0625 0 L 7.875 0 L 7.859375 -5.703125 L 5.453125 -0.796875 L 4.625 -0.796875 L 2.203125 -5.703125 L 2.203125 0 L 1 0 L 1 -7.625 L 2.53125 -7.625 L 5.046875 -2.5625 L 7.546875 -7.625 L 9.0625 -7.625 Z M 9.0625 0 "/></g></g></g><g fill="#222222" fill-opacity="1"><g transform="translate(205.238264, 267.784934)"><g><path d="M 7.484375 -7.625 L 7.484375 -3.15625 C 7.484375 -2.164062 7.1875 -1.382812 6.59375 -0.8125 C 6.007812 -0.238281 5.203125 0.046875 4.171875 0.046875 C 3.140625 0.046875 2.328125 -0.238281 1.734375 -0.8125 C 1.140625 -1.382812 0.84375 -2.164062 0.84375 -3.15625 L 0.84375 -7.625 L 2.140625 -7.625 L 2.140625 -3.15625 C 2.140625 -2.519531 2.320312 -2.015625 2.6875 -1.640625 C 3.050781 -1.273438 3.550781 -1.09375 4.1875 -1.09375 C 4.8125 -1.09375 5.300781 -1.273438 5.65625 -1.640625 C 6.019531 -2.003906 6.203125 -2.507812 6.203125 -3.15625 L 6.203125 -7.625 Z M 7.484375 -7.625 "/></g></g></g><g fill="#222222" fill-opacity="1"><g transform="translate(214.426953, 267.784934)"><g><path d="M 6.453125 -6.46875 L 2.28125 -6.46875 L 2.28125 -4.40625 L 6.015625 -4.40625 L 6.015625 -3.25 L 2.28125 -3.25 L 2.28125 -1.15625 L 6.578125 -1.15625 L 6.578125 0 L 1 0 L 1 -7.625 L 6.453125 -7.625 Z M 6.453125 -6.46875 "/></g></g></g><g fill="#222222" fill-opacity="1"><g transform="translate(222.439877, 267.784934)"><g><path d="M 1 -7.625 L 4.3125 -7.625 C 5.101562 -7.625 5.726562 -7.453125 6.1875 -7.109375 C 6.644531 -6.773438 6.875 -6.3125 6.875 -5.71875 C 6.875 -5.289062 6.753906 -4.925781 6.515625 -4.625 C 6.273438 -4.320312 5.945312 -4.117188 5.53125 -4.015625 C 6.039062 -3.929688 6.441406 -3.71875 6.734375 -3.375 C 7.023438 -3.03125 7.171875 -2.601562 7.171875 -2.09375 C 7.171875 -1.4375 6.921875 -0.921875 6.421875 -0.546875 C 5.929688 -0.179688 5.253906 0 4.390625 0 L 1 0 Z M 2.28125 -6.484375 L 2.28125 -4.46875 L 4.25 -4.46875 C 4.65625 -4.46875 4.972656 -4.554688 5.203125 -4.734375 C 5.429688 -4.921875 5.546875 -5.171875 5.546875 -5.484375 C 5.546875 -5.804688 5.429688 -6.050781 5.203125 -6.21875 C 4.984375 -6.394531 4.664062 -6.484375 4.25 -6.484375 Z M 2.28125 -3.328125 L 2.28125 -1.140625 L 4.25 -1.140625 C 4.757812 -1.140625 5.148438 -1.234375 5.421875 -1.421875 C 5.703125 -1.617188 5.84375 -1.894531 5.84375 -2.25 C 5.84375 -2.582031 5.703125 -2.84375 5.421875 -3.03125 C 5.140625 -3.226562 4.75 -3.328125 4.25 -3.328125 Z M 2.28125 -3.328125 "/></g></g></g><g fill="#222222" fill-opacity="1"><g transform="translate(230.997139, 267.784934)"><g><path d="M 2.28125 -1.171875 L 5.59375 -1.171875 L 5.59375 0 L 1 0 L 1 -7.625 L 2.28125 -7.625 Z M 2.28125 -1.171875 "/></g></g></g><g fill="#222222" fill-opacity="1"><g transform="translate(237.681884, 267.784934)"><g><path d="M 6.453125 -6.46875 L 2.28125 -6.46875 L 2.28125 -4.40625 L 6.015625 -4.40625 L 6.015625 -3.25 L 2.28125 -3.25 L 2.28125 -1.15625 L 6.578125 -1.15625 L 6.578125 0 L 1 0 L 1 -7.625 L 6.453125 -7.625 Z M 6.453125 -6.46875 "/></g></g></g><g fill="#222222" fill-opacity="1"><g transform="translate(245.694808, 267.784934)"><g><path d="M 3.5 -7.671875 C 4.488281 -7.671875 5.378906 -7.410156 6.171875 -6.890625 L 5.640625 -5.765625 C 4.859375 -6.234375 4.113281 -6.46875 3.40625 -6.46875 C 3.019531 -6.46875 2.71875 -6.398438 2.5 -6.265625 C 2.28125 -6.128906 2.171875 -5.929688 2.171875 -5.671875 C 2.171875 -5.421875 2.269531 -5.207031 2.46875 -5.03125 C 2.675781 -4.851562 2.929688 -4.722656 3.234375 -4.640625 C 3.535156 -4.554688 3.863281 -4.445312 4.21875 -4.3125 C 4.582031 -4.1875 4.914062 -4.050781 5.21875 -3.90625 C 5.519531 -3.769531 5.769531 -3.550781 5.96875 -3.25 C 6.164062 -2.945312 6.265625 -2.582031 6.265625 -2.15625 C 6.265625 -1.488281 6 -0.953125 5.46875 -0.546875 C 4.9375 -0.148438 4.242188 0.046875 3.390625 0.046875 C 2.816406 0.046875 2.253906 -0.0625 1.703125 -0.28125 C 1.160156 -0.5 0.6875 -0.796875 0.28125 -1.171875 L 0.84375 -2.28125 C 1.226562 -1.925781 1.648438 -1.648438 2.109375 -1.453125 C 2.566406 -1.265625 3.003906 -1.171875 3.421875 -1.171875 C 3.867188 -1.171875 4.21875 -1.25 4.46875 -1.40625 C 4.71875 -1.570312 4.84375 -1.800781 4.84375 -2.09375 C 4.84375 -2.351562 4.738281 -2.570312 4.53125 -2.75 C 4.332031 -2.925781 4.082031 -3.054688 3.78125 -3.140625 C 3.476562 -3.222656 3.144531 -3.320312 2.78125 -3.4375 C 2.425781 -3.5625 2.097656 -3.691406 1.796875 -3.828125 C 1.492188 -3.960938 1.238281 -4.175781 1.03125 -4.46875 C 0.832031 -4.769531 0.734375 -5.128906 0.734375 -5.546875 C 0.734375 -6.203125 0.984375 -6.71875 1.484375 -7.09375 C 1.992188 -7.476562 2.664062 -7.671875 3.5 -7.671875 Z M 3.5 -7.671875 "/></g></g></g></svg>