<svg xmlns="http://www.w3.org/2000/svg" xmlns:xlink="http://www.w3.org/1999/xlink" width="500" zoomAndPan="magnify" viewBox="0 0 375 374.999991" height="500" preserveAspectRatio="xMidYMid meet" version="1.0"><defs><g/><clipPath id="82e43bb2c1"><path d="M 41.71875 33.125 L 333.46875 33.125 L 333.46875 324.875 L 41.71875 324.875 Z M 41.71875 33.125 " clip-rule="nonzero"/></clipPath></defs><g clip-path="url(#82e43bb2c1)"><path fill="#40240a" d="M 41.71875 33.125 L 333.46875 33.125 L 333.46875 324.875 L 41.71875 324.875 Z M 41.71875 33.125 " fill-opacity="1" fill-rule="nonzero"/></g><g fill="#ffffff" fill-opacity="1"><g transform="translate(102.241694, 155.835044)"><g><path d="M 6.890625 -52.484375 L 29.6875 -52.484375 C 35.132812 -52.484375 39.429688 -51.316406 42.578125 -48.984375 C 45.734375 -46.660156 47.3125 -43.453125 47.3125 -39.359375 C 47.3125 -36.410156 46.484375 -33.898438 44.828125 -31.828125 C 43.179688 -29.753906 40.929688 -28.363281 38.078125 -27.65625 C 41.578125 -27.0625 44.328125 -25.585938 46.328125 -23.234375 C 48.328125 -20.890625 49.328125 -17.941406 49.328125 -14.390625 C 49.328125 -9.890625 47.628906 -6.363281 44.234375 -3.8125 C 40.835938 -1.269531 36.164062 0 30.21875 0 L 6.890625 0 Z M 15.75 -44.609375 L 15.75 -30.734375 L 29.234375 -30.734375 C 32.035156 -30.734375 34.234375 -31.359375 35.828125 -32.609375 C 37.429688 -33.859375 38.234375 -35.582031 38.234375 -37.78125 C 38.234375 -39.976562 37.445312 -41.664062 35.875 -42.84375 C 34.300781 -44.019531 32.085938 -44.609375 29.234375 -44.609375 Z M 15.75 -22.9375 L 15.75 -7.875 L 29.234375 -7.875 C 32.734375 -7.875 35.445312 -8.535156 37.375 -9.859375 C 39.300781 -11.179688 40.265625 -13.066406 40.265625 -15.515625 C 40.265625 -17.816406 39.285156 -19.628906 37.328125 -20.953125 C 35.378906 -22.273438 32.679688 -22.9375 29.234375 -22.9375 Z M 15.75 -22.9375 "/></g></g></g><g fill="#ffffff" fill-opacity="1"><g transform="translate(217.388053, 155.835044)"><g><path d="M 40.78125 -11.84375 L 14.3125 -11.84375 L 9.296875 0 L 0.078125 0 L 23.234375 -52.484375 L 32.3125 -52.484375 L 55.25 0 L 45.8125 0 Z M 37.40625 -19.71875 L 27.515625 -43.03125 L 17.625 -19.71875 Z M 37.40625 -19.71875 "/></g></g></g><g fill="#ffffff" fill-opacity="1"><g transform="translate(101.778775, 262.877014)"><g><path d="M 41.90625 0 L 24.671875 -23.171875 L 15.75 -13.34375 L 15.75 0 L 6.890625 0 L 6.890625 -52.484375 L 15.75 -52.484375 L 15.75 -25.34375 L 40.78125 -52.484375 L 51.203125 -52.484375 L 30.890625 -30.0625 L 52.546875 0 Z M 41.90625 0 "/></g></g></g><g fill="#ffffff" fill-opacity="1"><g transform="translate(220.499898, 262.877014)"><g><path d="M 24.140625 -52.859375 C 30.929688 -52.859375 37.050781 -51.054688 42.5 -47.453125 L 38.828125 -39.65625 C 33.484375 -42.90625 28.363281 -44.53125 23.46875 -44.53125 C 20.8125 -44.53125 18.722656 -44.054688 17.203125 -43.109375 C 15.679688 -42.160156 14.921875 -40.8125 14.921875 -39.0625 C 14.921875 -37.3125 15.617188 -35.820312 17.015625 -34.59375 C 18.410156 -33.375 20.160156 -32.472656 22.265625 -31.890625 C 24.367188 -31.316406 26.644531 -30.59375 29.09375 -29.71875 C 31.539062 -28.84375 33.8125 -27.914062 35.90625 -26.9375 C 38.007812 -25.96875 39.75 -24.445312 41.125 -22.375 C 42.5 -20.300781 43.1875 -17.789062 43.1875 -14.84375 C 43.1875 -10.25 41.347656 -6.578125 37.671875 -3.828125 C 33.992188 -1.078125 29.234375 0.296875 23.390625 0.296875 C 19.390625 0.296875 15.515625 -0.453125 11.765625 -1.953125 C 8.015625 -3.453125 4.742188 -5.472656 1.953125 -8.015625 L 5.765625 -15.671875 C 8.421875 -13.222656 11.332031 -11.332031 14.5 -10 C 17.675781 -8.675781 20.691406 -8.015625 23.546875 -8.015625 C 26.640625 -8.015625 29.046875 -8.578125 30.765625 -9.703125 C 32.492188 -10.828125 33.359375 -12.390625 33.359375 -14.390625 C 33.359375 -16.191406 32.65625 -17.703125 31.25 -18.921875 C 29.851562 -20.148438 28.101562 -21.050781 26 -21.625 C 23.90625 -22.195312 21.632812 -22.894531 19.1875 -23.71875 C 16.738281 -24.550781 14.460938 -25.425781 12.359375 -26.34375 C 10.265625 -27.269531 8.515625 -28.757812 7.109375 -30.8125 C 5.710938 -32.863281 5.015625 -35.335938 5.015625 -38.234375 C 5.015625 -42.679688 6.765625 -46.226562 10.265625 -48.875 C 13.765625 -51.53125 18.390625 -52.859375 24.140625 -52.859375 Z M 24.140625 -52.859375 "/></g></g></g><g fill="#222222" fill-opacity="1"><g transform="translate(44.951094, 356.007475)"><g><path d="M 13.625 -14.203125 L 8.3125 -14.203125 L 8.3125 0 L 5.5 0 L 5.5 -14.203125 L 0.21875 -14.203125 L 0.21875 -16.734375 L 13.625 -16.734375 Z M 13.625 -14.203125 "/></g></g></g><g fill="#222222" fill-opacity="1"><g transform="translate(60.696412, 356.007475)"><g><path d="M 5.015625 0 L 2.203125 0 L 2.203125 -16.734375 L 5.015625 -16.734375 Z M 5.015625 0 "/></g></g></g><g fill="#222222" fill-opacity="1"><g transform="translate(69.823711, 356.007475)"><g><path d="M 14.15625 -14.203125 L 5.015625 -14.203125 L 5.015625 -9.6875 L 13.203125 -9.6875 L 13.203125 -7.140625 L 5.015625 -7.140625 L 5.015625 -2.53125 L 14.4375 -2.53125 L 14.4375 0 L 2.203125 0 L 2.203125 -16.734375 L 14.15625 -16.734375 Z M 14.15625 -14.203125 "/></g></g></g><g fill="#222222" fill-opacity="1"><g transform="translate(87.4087, 356.007475)"><g><path d="M 16.703125 0 L 13.9375 0 L 5.015625 -12 L 5.015625 0 L 2.203125 0 L 2.203125 -16.734375 L 4.96875 -16.734375 L 13.9375 -4.703125 L 13.9375 -16.734375 L 16.703125 -16.734375 Z M 16.703125 0 "/></g></g></g><g fill="#222222" fill-opacity="1"><g transform="translate(108.242963, 356.007475)"><g><path d="M 2.203125 -16.734375 L 9.0625 -16.734375 C 11.5625 -16.734375 13.628906 -15.941406 15.265625 -14.359375 C 16.898438 -12.785156 17.71875 -10.785156 17.71875 -8.359375 C 17.71875 -5.941406 16.894531 -3.941406 15.25 -2.359375 C 13.613281 -0.785156 11.523438 0 8.984375 0 L 2.203125 0 Z M 5.015625 -14.203125 L 5.015625 -2.53125 L 9.125 -2.53125 C 10.769531 -2.53125 12.140625 -3.078125 13.234375 -4.171875 C 14.328125 -5.265625 14.875 -6.65625 14.875 -8.34375 C 14.875 -10.03125 14.3125 -11.425781 13.1875 -12.53125 C 12.0625 -13.644531 10.671875 -14.203125 9.015625 -14.203125 Z M 5.015625 -14.203125 "/></g></g></g><g fill="#222222" fill-opacity="1"><g transform="translate(128.671066, 356.007475)"><g><path d="M 13 -3.78125 L 4.5625 -3.78125 L 2.96875 0 L 0.03125 0 L 7.40625 -16.734375 L 10.296875 -16.734375 L 17.625 0 L 14.609375 0 Z M 11.921875 -6.28125 L 8.78125 -13.71875 L 5.625 -6.28125 Z M 11.921875 -6.28125 "/></g></g></g><g fill="#222222" fill-opacity="1"><g transform="translate(148.215173, 356.007475)"><g/></g></g><g fill="#222222" fill-opacity="1"><g transform="translate(156.291241, 356.007475)"><g><path d="M 2.203125 -16.734375 L 9.0625 -16.734375 C 11.5625 -16.734375 13.628906 -15.941406 15.265625 -14.359375 C 16.898438 -12.785156 17.71875 -10.785156 17.71875 -8.359375 C 17.71875 -5.941406 16.894531 -3.941406 15.25 -2.359375 C 13.613281 -0.785156 11.523438 0 8.984375 0 L 2.203125 0 Z M 5.015625 -14.203125 L 5.015625 -2.53125 L 9.125 -2.53125 C 10.769531 -2.53125 12.140625 -3.078125 13.234375 -4.171875 C 14.328125 -5.265625 14.875 -6.65625 14.875 -8.34375 C 14.875 -10.03125 14.3125 -11.425781 13.1875 -12.53125 C 12.0625 -13.644531 10.671875 -14.203125 9.015625 -14.203125 Z M 5.015625 -14.203125 "/></g></g></g><g fill="#222222" fill-opacity="1"><g transform="translate(176.719339, 356.007475)"><g><path d="M 14.15625 -14.203125 L 5.015625 -14.203125 L 5.015625 -9.6875 L 13.203125 -9.6875 L 13.203125 -7.140625 L 5.015625 -7.140625 L 5.015625 -2.53125 L 14.4375 -2.53125 L 14.4375 0 L 2.203125 0 L 2.203125 -16.734375 L 14.15625 -16.734375 Z M 14.15625 -14.203125 "/></g></g></g><g fill="#222222" fill-opacity="1"><g transform="translate(194.304334, 356.007475)"><g/></g></g><g fill="#222222" fill-opacity="1"><g transform="translate(202.380402, 356.007475)"><g><path d="M 19.890625 0 L 17.28125 0 L 17.265625 -12.5 L 11.984375 -1.75 L 10.140625 -1.75 L 4.859375 -12.5 L 4.859375 0 L 2.203125 0 L 2.203125 -16.734375 L 5.546875 -16.734375 L 11.0625 -5.625 L 16.5625 -16.734375 L 19.890625 -16.734375 Z M 19.890625 0 "/></g></g></g><g fill="#222222" fill-opacity="1"><g transform="translate(226.392292, 356.007475)"><g><path d="M 16.421875 -16.734375 L 16.421875 -6.9375 C 16.421875 -4.75 15.773438 -3.023438 14.484375 -1.765625 C 13.191406 -0.503906 11.414062 0.125 9.15625 0.125 C 6.894531 0.125 5.113281 -0.503906 3.8125 -1.765625 C 2.507812 -3.023438 1.859375 -4.75 1.859375 -6.9375 L 1.859375 -16.734375 L 4.6875 -16.734375 L 4.6875 -6.9375 C 4.6875 -5.53125 5.085938 -4.425781 5.890625 -3.625 C 6.691406 -2.820312 7.789062 -2.421875 9.1875 -2.421875 C 10.550781 -2.421875 11.628906 -2.816406 12.421875 -3.609375 C 13.210938 -4.410156 13.609375 -5.519531 13.609375 -6.9375 L 13.609375 -16.734375 Z M 16.421875 -16.734375 "/></g></g></g><g fill="#222222" fill-opacity="1"><g transform="translate(246.557598, 356.007475)"><g><path d="M 14.15625 -14.203125 L 5.015625 -14.203125 L 5.015625 -9.6875 L 13.203125 -9.6875 L 13.203125 -7.140625 L 5.015625 -7.140625 L 5.015625 -2.53125 L 14.4375 -2.53125 L 14.4375 0 L 2.203125 0 L 2.203125 -16.734375 L 14.15625 -16.734375 Z M 14.15625 -14.203125 "/></g></g></g><g fill="#222222" fill-opacity="1"><g transform="translate(264.142594, 356.007475)"><g><path d="M 2.203125 -16.734375 L 9.46875 -16.734375 C 11.207031 -16.734375 12.578125 -16.363281 13.578125 -15.625 C 14.578125 -14.882812 15.078125 -13.859375 15.078125 -12.546875 C 15.078125 -11.609375 14.8125 -10.804688 14.28125 -10.140625 C 13.757812 -9.484375 13.046875 -9.046875 12.140625 -8.828125 C 13.253906 -8.628906 14.128906 -8.15625 14.765625 -7.40625 C 15.410156 -6.65625 15.734375 -5.71875 15.734375 -4.59375 C 15.734375 -3.15625 15.191406 -2.03125 14.109375 -1.21875 C 13.023438 -0.40625 11.535156 0 9.640625 0 L 2.203125 0 Z M 5.015625 -14.21875 L 5.015625 -9.796875 L 9.328125 -9.796875 C 10.210938 -9.796875 10.910156 -9.992188 11.421875 -10.390625 C 11.929688 -10.796875 12.1875 -11.347656 12.1875 -12.046875 C 12.1875 -12.742188 11.9375 -13.28125 11.4375 -13.65625 C 10.9375 -14.03125 10.234375 -14.21875 9.328125 -14.21875 Z M 5.015625 -7.3125 L 5.015625 -2.515625 L 9.328125 -2.515625 C 10.441406 -2.515625 11.304688 -2.722656 11.921875 -3.140625 C 12.535156 -3.566406 12.84375 -4.171875 12.84375 -4.953125 C 12.84375 -5.679688 12.53125 -6.253906 11.90625 -6.671875 C 11.28125 -7.097656 10.421875 -7.3125 9.328125 -7.3125 Z M 5.015625 -7.3125 "/></g></g></g><g fill="#222222" fill-opacity="1"><g transform="translate(282.922182, 356.007475)"><g><path d="M 5.015625 -2.5625 L 12.265625 -2.5625 L 12.265625 0 L 2.203125 0 L 2.203125 -16.734375 L 5.015625 -16.734375 Z M 5.015625 -2.5625 "/></g></g></g><g fill="#222222" fill-opacity="1"><g transform="translate(297.592385, 356.007475)"><g><path d="M 14.15625 -14.203125 L 5.015625 -14.203125 L 5.015625 -9.6875 L 13.203125 -9.6875 L 13.203125 -7.140625 L 5.015625 -7.140625 L 5.015625 -2.53125 L 14.4375 -2.53125 L 14.4375 0 L 2.203125 0 L 2.203125 -16.734375 L 14.15625 -16.734375 Z M 14.15625 -14.203125 "/></g></g></g><g fill="#222222" fill-opacity="1"><g transform="translate(315.17738, 356.007475)"><g><path d="M 7.703125 -16.859375 C 9.867188 -16.859375 11.820312 -16.28125 13.5625 -15.125 L 12.390625 -12.640625 C 10.679688 -13.679688 9.046875 -14.203125 7.484375 -14.203125 C 6.640625 -14.203125 5.972656 -14.050781 5.484375 -13.75 C 4.992188 -13.445312 4.75 -13.015625 4.75 -12.453125 C 4.75 -11.898438 4.972656 -11.425781 5.421875 -11.03125 C 5.867188 -10.644531 6.425781 -10.359375 7.09375 -10.171875 C 7.769531 -9.984375 8.5 -9.75 9.28125 -9.46875 C 10.0625 -9.195312 10.785156 -8.90625 11.453125 -8.59375 C 12.117188 -8.28125 12.671875 -7.789062 13.109375 -7.125 C 13.546875 -6.46875 13.765625 -5.671875 13.765625 -4.734375 C 13.765625 -3.265625 13.175781 -2.09375 12 -1.21875 C 10.832031 -0.34375 9.316406 0.09375 7.453125 0.09375 C 6.179688 0.09375 4.945312 -0.144531 3.75 -0.625 C 2.550781 -1.101562 1.507812 -1.75 0.625 -2.5625 L 1.84375 -5 C 2.6875 -4.21875 3.613281 -3.613281 4.625 -3.1875 C 5.632812 -2.769531 6.59375 -2.5625 7.5 -2.5625 C 8.488281 -2.5625 9.257812 -2.738281 9.8125 -3.09375 C 10.363281 -3.457031 10.640625 -3.957031 10.640625 -4.59375 C 10.640625 -5.164062 10.414062 -5.644531 9.96875 -6.03125 C 9.519531 -6.425781 8.960938 -6.710938 8.296875 -6.890625 C 7.628906 -7.078125 6.90625 -7.300781 6.125 -7.5625 C 5.34375 -7.820312 4.613281 -8.097656 3.9375 -8.390625 C 3.269531 -8.691406 2.710938 -9.171875 2.265625 -9.828125 C 1.828125 -10.484375 1.609375 -11.269531 1.609375 -12.1875 C 1.609375 -13.601562 2.164062 -14.734375 3.28125 -15.578125 C 4.394531 -16.429688 5.867188 -16.859375 7.703125 -16.859375 Z M 7.703125 -16.859375 "/></g></g></g></svg>